<?xml version="1.0" encoding="UTF-8" standalone="no"?>
<!-- Created with Inkscape (http://www.inkscape.org/) -->

<svg
   xmlns:dc="http://purl.org/dc/elements/1.1/"
   xmlns:cc="http://creativecommons.org/ns#"
   xmlns:rdf="http://www.w3.org/1999/02/22-rdf-syntax-ns#"
   xmlns:svg="http://www.w3.org/2000/svg"
   xmlns="http://www.w3.org/2000/svg"
   xmlns:sodipodi="http://sodipodi.sourceforge.net/DTD/sodipodi-0.dtd"
   xmlns:inkscape="http://www.inkscape.org/namespaces/inkscape"
   width="200mm"
   height="200mm"
   viewBox="0 0 540 540"
   version="1.1"
   id="svg8"
   inkscape:version="0.92.2 (5c3e80d, 2017-08-06)"
   sodipodi:docname="cell.svg">
  <defs
     id="defs2">
    <inkscape:path-effect
       effect="bspline"
       id="path-effect4522"
       is_visible="true"
       weight="33.333333"
       steps="2"
       helper_size="0"
       apply_no_weight="true"
       apply_with_weight="true"
       only_selected="false" />
    <inkscape:path-effect
       effect="bspline"
       id="path-effect4518"
       is_visible="true"
       weight="33.333333"
       steps="2"
       helper_size="0"
       apply_no_weight="true"
       apply_with_weight="true"
       only_selected="false" />
    <inkscape:path-effect
       effect="bspline"
       id="path-effect4510"
       is_visible="true"
       weight="33.333333"
       steps="2"
       helper_size="0"
       apply_no_weight="true"
       apply_with_weight="true"
       only_selected="false" />
  </defs>
  <sodipodi:namedview
     id="base"
     pagecolor="#ffffff"
     bordercolor="#666666"
     borderopacity="1.0"
     inkscape:pageopacity="0.0"
     inkscape:pageshadow="2"
     inkscape:zoom="0.70710678"
     inkscape:cx="370.39311"
     inkscape:cy="389.73299"
     inkscape:document-units="mm"
     inkscape:current-layer="layer1"
     showgrid="false"
     scale-x="2.7"
     inkscape:window-width="1920"
     inkscape:window-height="1021"
     inkscape:window-x="1912"
     inkscape:window-y="403"
     inkscape:window-maximized="1" />
  <metadata
     id="metadata5">
    <rdf:RDF>
      <cc:Work
         rdf:about="">
        <dc:format>image/svg+xml</dc:format>
        <dc:type
           rdf:resource="http://purl.org/dc/dcmitype/StillImage" />
        <dc:title></dc:title>
      </cc:Work>
    </rdf:RDF>
  </metadata>
  <g
     inkscape:label="Layer 1"
     inkscape:groupmode="layer"
     id="layer1"
     transform="translate(0,-97)">
    <path
       style="opacity:1;fill:none;fill-opacity:1;fill-rule:evenodd;stroke:#00009b;stroke-width:29.69999977;stroke-linecap:round;stroke-linejoin:round;stroke-miterlimit:4;stroke-dasharray:none;stroke-dashoffset:0;stroke-opacity:1"
       d="M -16.164461,134.89143 C 4.3786179,116.03221 24.920954,97.173675 40.244038,87.418794 55.567122,77.663913 66.342399,76.968733 53.967059,96.572697 41.59172,116.17666 6.0623415,156.44329 -12.628095,182.03709 -31.318532,207.6309 -33.339052,218.74376 -6.3959375,197.69439 20.547177,176.64502 76.445165,123.44091 111.84126,95.145111 147.23736,66.849311 161.9822,63.498209 134.20144,99.02398 106.42069,134.54975 36.033973,208.97781 -1.2645875,254.29333 -38.563148,299.60884 -43.105008,317.07753 0.00273751,280.20015 43.110483,243.32277 133.69427,152.73898 187.07068,104.75097 240.44708,56.762962 256.61167,51.374765 214.35092,103.23262 172.09018,155.09048 71.393721,264.20637 19.723241,326.87483 -31.947238,389.54329 -34.686108,406.31886 18.77764,355.892 72.241388,305.46514 182.18763,187.76195 243.30492,129.16604 c 61.11729,-58.595919 73.58655,-58.258912 19.20326,7.23681 -54.3833,65.49571 -175.623514,196.16572 -234.725224,267.39054 -59.101709,71.22481 -56.07089,83.01133 13.136468,14.3091 69.207356,-68.70224 204.579006,-217.88045 275.214126,-289.68925 70.63512,-71.808812 76.86493,-65.925102 9.17682,14.89655 -67.6881,80.82165 -209.12763,236.74189 -278.668873,320.76353 -69.541246,84.02165 -67.183939,96.14494 10.030036,18.60174 77.213977,-77.5432 229.574807,-245.07269 311.240327,-329.24751 81.66553,-84.174818 93.44956,-85.214585 15.4953,9.07137 -77.95426,94.28596 -245.33506,283.89439 -325.230984,382.976 -79.895925,99.08161 -71.983362,108.02625 14.227884,17.26868 86.21125,-90.75758 250.88581,-281.02574 338.61167,-375.82317 87.72586,-94.797427 98.50221,-94.123904 20.71589,1.00441 -77.78632,95.12832 -244.15586,284.73572 -319.58997,379.8707 -75.434111,95.13498 -59.943229,95.80849 31.57718,2.10832 91.52042,-93.70017 259.38308,-282.12432 347.61961,-375.43645 88.23652,-93.31213 97.65467,-91.56803 21.21529,5.58071 -76.43937,97.14874 -238.43077,289.78716 -313.52833,389.30009 -75.09757,99.51293 -63.31103,105.91133 13.13208,21.38609 76.4431,-84.52524 217.54839,-259.98074 292.30863,-340.97116 74.76024,-80.99042 83.17927,-67.51998 25.50674,16.06345 -57.67253,83.58342 -181.76279,237.68463 -240.02244,317.32873 -58.25965,79.6441 -50.85097,85.03223 4.30771,26.18278 55.15867,-58.84944 158.34743,-182.27129 212.56531,-236.8262 54.21788,-54.5549 59.60607,-40.41091 22.73021,13.30333 -36.87585,53.71424 -116.0122,146.9941 -149.51963,191.61497 -33.50743,44.62087 -21.38419,40.57979 16.75743,4.12756 38.14162,-36.45222 102.62374,-105.66077 135.79416,-133.44344 33.17042,-27.78267 35.19099,-14.31214 6.64877,22.31173 -28.54223,36.62386 -87.9758,96.7328 -109.0231,124.01053 -21.0473,27.27772 -3.87276,21.88963 21.3833,1.85307 25.25607,-20.03656 58.59693,-54.72453 79.1663,-69.95472 20.56938,-15.23018 28.93384,-10.69944 18.8317,6.97951 -10.10213,17.67896 -38.39082,48.66181 -66.67931,79.64444"
       id="path4520"
       inkscape:connector-curvature="0"
       inkscape:path-effect="#path-effect4522"
       inkscape:original-d="M -16.164461,134.89143 C 4.3785892,116.03218 24.920925,97.173644 45.462546,78.315821 55.565683,77.641611 66.342356,76.968068 76.781188,76.295263 41.424711,116.0293 6.0623872,156.44333 -29.298085,196.51844 c -2.019882,11.11256 -4.040401,22.22542 -6.061673,33.3392 C 20.54716,176.645 76.445146,123.44089 132.34653,70.23359 147.16446,66.528569 161.98208,63.497684 176.79879,60.130802 106.42071,134.54977 36.033992,208.97783 -34.349479,283.40242 c -4.377204,16.1639 -8.755036,33.67524 -13.133624,50.51394 C 43.110481,243.32277 133.69427,152.73898 224.28189,62.15136 240.44694,56.762534 256.61153,51.374338 272.77527,45.986899 172.09021,155.09051 71.393749,264.2064 -29.298085,373.31723 c -3.030143,16.16386 -5.38744,33.00173 -8.082231,49.50366 C 72.409413,305.62209 182.18766,187.76198 291.97057,70.23359 c 12.46075,-7.14e-4 24.92092,0.672805 37.38032,1.010279 C 208.12491,201.89859 86.884694,332.5686 -34.349479,463.23204 c 3.031568,11.78594 6.062387,23.57246 9.092509,35.35976 135.38379,-149.19151 270.75544,-298.36972 406.13208,-447.553507 6.06235,5.387412 12.12406,11.449112 18.18502,17.174739 C 257.6223,224.13147 116.18278,380.05171 -25.25697,535.97212 c 2.358043,12.12269 4.715349,24.24598 7.071952,36.37003 C 133.70122,404.96426 286.24637,237.6024 438.461,70.23359 449.57473,69.222602 461.36136,68.212318 472.81048,67.202754 305.45295,256.78492 138.07215,446.39335 -29.298085,635.98971 c 7.746216,8.41831 15.491656,17.51079 23.2364122,26.26726 C 158.61536,471.98607 323.28993,281.71791 487.96466,91.449445 c 10.77698,0.672802 21.55333,1.346324 32.32892,2.020558 C 353.94535,283.0532 187.57581,472.6606 21.215855,662.25697 c 15.491717,0.6728 30.982598,1.34632 46.472825,2.02055 167.36287,-188.24104 335.41327,-376.49794 503.11884,-564.745845 8.75643,1.683075 18.18574,3.366885 27.27753,5.051395 -161.97062,192.61385 -323.96202,385.25227 -485.9441,577.87947 11.78734,6.39775 23.57388,12.79615 35.35975,19.1953 141.09997,-175.44871 282.20526,-350.90421 423.30682,-526.35525 8.41967,13.46961 16.8387,26.94005 25.25697,40.41115 -123.92859,153.56387 -247.85435,307.79755 -371.7826,461.69741 7.40946,5.38746 14.81814,10.77559 22.22614,16.16446 C 349.21865,570.323 452.60562,447.06687 555.65334,323.81357 c 5.38883,14.1431 10.77702,28.28709 16.16446,42.43171 -79.13995,93.28424 -158.2763,186.5641 -237.41552,279.84723 12.12416,-4.04187 24.2474,-8.08295 36.37004,-12.12335 63.98051,-69.03155 128.64288,-138.07215 192.96325,-207.10715 2.02125,13.46952 4.04183,26.94005 6.06167,40.41115 -58.93481,59.94513 -118.53866,119.8857 -177.80907,179.82962 17.17566,-5.38893 34.3502,-10.77702 51.52422,-16.16445 33.33826,-34.68523 66.67912,-69.3732 100.01761,-104.05872 8.08277,3.70356 16.16517,8.75503 24.24668,13.13362 -28.2862,30.9802 -56.57489,61.96306 -84.86342,92.94565" />
  </g>
</svg>
