<?xml version="1.0" encoding="UTF-8" standalone="no"?>
<!-- Created with Inkscape (http://www.inkscape.org/) -->

<svg
   xmlns:dc="http://purl.org/dc/elements/1.1/"
   xmlns:cc="http://creativecommons.org/ns#"
   xmlns:rdf="http://www.w3.org/1999/02/22-rdf-syntax-ns#"
   xmlns:svg="http://www.w3.org/2000/svg"
   xmlns="http://www.w3.org/2000/svg"
   xmlns:sodipodi="http://sodipodi.sourceforge.net/DTD/sodipodi-0.dtd"
   xmlns:inkscape="http://www.inkscape.org/namespaces/inkscape"
   width="25"
   height="25"
   viewBox="0 620 17.859375 17.859375"
   version="1.1"
   id="svg8"
   inkscape:version="0.92.2 (5c3e80d, 2017-08-06)"
   sodipodi:docname="cellResized.svg">
  <defs
     id="defs2">
    <inkscape:path-effect
       effect="bspline"
       id="path-effect4522"
       is_visible="true"
       weight="33.333333"
       steps="2"
       helper_size="0"
       apply_no_weight="true"
       apply_with_weight="true"
       only_selected="false" />
    <inkscape:path-effect
       effect="bspline"
       id="path-effect4518"
       is_visible="true"
       weight="33.333333"
       steps="2"
       helper_size="0"
       apply_no_weight="true"
       apply_with_weight="true"
       only_selected="false" />
    <inkscape:path-effect
       effect="bspline"
       id="path-effect4510"
       is_visible="true"
       weight="33.333333"
       steps="2"
       helper_size="0"
       apply_no_weight="true"
       apply_with_weight="true"
       only_selected="false" />
  </defs>
  <sodipodi:namedview
     id="base"
     pagecolor="#ffffff"
     bordercolor="#666666"
     borderopacity="1.0"
     inkscape:pageopacity="0.0"
     inkscape:pageshadow="2"
     inkscape:zoom="16.920155"
     inkscape:cx="8.3062618"
     inkscape:cy="5.8412972"
     inkscape:document-units="mm"
     inkscape:current-layer="layer1"
     showgrid="false"
     scale-x="2.7"
     inkscape:window-width="1920"
     inkscape:window-height="1021"
     inkscape:window-x="1912"
     inkscape:window-y="403"
     inkscape:window-maximized="1"
     units="px" />
  <metadata
     id="metadata5">
    <rdf:RDF>
      <cc:Work
         rdf:about="">
        <dc:format>image/svg+xml</dc:format>
        <dc:type
           rdf:resource="http://purl.org/dc/dcmitype/StillImage" />
        <dc:title></dc:title>
      </cc:Work>
    </rdf:RDF>
  </metadata>
  <g
     inkscape:label="Layer 1"
     inkscape:groupmode="layer"
     id="layer1"
     transform="translate(0,-619.14063)">
    <path
       style="opacity:1;fill:none;fill-opacity:1;fill-rule:evenodd;stroke:#00009b;stroke-width:1.43889987;stroke-linecap:round;stroke-linejoin:round;stroke-miterlimit:4;stroke-dasharray:none;stroke-dashoffset:0;stroke-opacity:1"
       d="m 0.64296341,621.30633 c 0.61153359,-0.56141 1.22306519,-1.12282 1.67922709,-1.41315 0.456162,-0.29034 0.7769214,-0.31091 0.4085145,0.27273 -0.368407,0.58363 -1.4260677,1.7823 -1.98246554,2.5442 -0.55639786,0.76191 -0.61653994,1.09269 0.18551796,0.46609 0.80205788,-0.6266 2.46607058,-2.21041 3.51977708,-3.05274 1.0537065,-0.84234 1.492643,-0.9421 0.66565,0.11546 -0.8269929,1.05755 -2.922325,3.27319 -4.0326624,4.62218 -1.11033744,1.349 -1.2455377,1.869 0.037721,0.77121 1.2832591,-1.09778 3.97983,-3.79437 5.568776,-5.22292 1.5889461,-1.42855 2.0701541,-1.58896 0.8121014,-0.0452 -1.2580526,1.54375 -4.2556748,4.79202 -5.7938328,6.65758 -1.53815806,1.86555 -1.61969735,2.36498 -0.028151,0.86382 1.5915463,-1.50115 4.8645343,-5.00505 6.6839184,-6.7494 1.8193849,-1.74435 2.1905849,-1.73438 0.5716463,0.21533 -1.6189381,1.94971 -5.2280826,5.83957 -6.9874734,7.95984 -1.75939089,2.12028 -1.66916597,2.47115 0.3910543,0.42596 2.0602203,-2.04518 6.0900699,-6.48603 8.1927867,-8.62369 2.102716,-2.13766 2.288175,-1.96251 0.273173,0.44346 -2.0150024,2.40596 -6.2254505,7.04748 -8.2956129,9.54872 -2.07016249,2.50123 -1.99998205,2.86215 0.2985765,0.55376 2.2985585,-2.30838 6.8341442,-7.2955 9.2652354,-9.80121 2.431091,-2.50571 2.781883,-2.53652 0.46127,0.27033 -2.320612,2.80685 -7.3033318,8.45124 -9.6817191,11.40078 -2.37838718,2.94955 -2.14284325,3.21584 0.423563,0.51409 2.5664062,-2.70176 7.4685461,-8.36579 10.0800481,-11.18786 2.611503,-2.82206 2.932309,-2.80213 0.616685,0.0297 -2.315623,2.83181 -7.2682228,8.47618 -9.5137984,11.30819 -2.2455755,2.832 -1.7844362,2.85194 0.9400057,0.0625 2.7244418,-2.7894 7.7214907,-8.39853 10.3482127,-11.17633 2.626722,-2.77779 2.907091,-2.72587 0.63157,0.16612 -2.275521,2.892 -7.0978117,8.62661 -9.3333664,11.589 -2.2355547,2.96238 -1.8847159,3.15284 0.3909011,0.63664 2.2756171,-2.51619 6.4761773,-7.73932 8.7016973,-10.15029 2.22552,-2.41097 2.476129,-2.01001 0.759273,0.47818 -1.716855,2.48819 -5.410835,7.07554 -7.1451395,9.44646 -1.7343044,2.37091 -1.5137738,2.5313 0.1282095,0.77944 1.641984,-1.75186 4.713801,-5.426 6.327814,-7.05001 1.614012,-1.62402 1.77439,-1.20301 0.676645,0.39602 -1.097746,1.59903 -3.453554,4.37586 -4.451014,5.70415 -0.99746,1.32829 -0.636573,1.20801 0.498873,0.12287 1.135445,-1.08515 3.054984,-3.14539 4.04242,-3.97242 0.987436,-0.82704 1.047579,-0.42612 0.197905,0.66414 -0.849674,1.09026 -2.61891,2.87962 -3.245461,3.69166 -0.626551,0.81204 -0.115295,0.65165 0.636554,0.0552 0.75185,-0.59648 1.744328,-1.62907 2.356672,-2.08246 0.612343,-0.4534 0.861324,-0.31854 0.560595,0.20774 -0.300729,0.52628 -1.142844,1.44859 -1.984963,2.37091"
       id="path4520"
       inkscape:connector-curvature="0"
       inkscape:path-effect="#path-effect4522"
       inkscape:original-d="m 0.64296341,621.30633 c 0.61154199,-0.5614 1.22306169,-1.12282 1.83456029,-1.68419 0.300758,-0.0204 0.621567,-0.0402 0.9323175,-0.0598 -1.0525187,1.18281 -2.1052117,2.38586 -3.1578496,3.57885 -0.0601251,0.33083 -0.12027758,0.66161 -0.18044884,0.99247 1.66428114,-1.58405 3.32829534,-3.16786 4.99241104,-4.75179 0.4411117,-0.11032 0.8822139,-0.20055 1.3232889,-0.30075 -2.0950693,2.21533 -4.1903952,4.43098 -6.28562479,6.64654 -0.13030371,0.48117 -0.26062621,1.00244 -0.3909718,1.50374 2.69685949,-2.69687 5.39342789,-5.39346 8.09011019,-8.09016 0.4812141,-0.16039 0.9624134,-0.32082 1.4435888,-0.4812 -2.9972708,3.2479 -5.9948807,6.49618 -8.9923535,9.74425 -0.0902089,0.48117 -0.16037779,0.98245 -0.24059811,1.47365 3.26830521,-3.48883 6.53626911,-6.99742 9.80437221,-10.49607 0.3709423,-3e-5 0.7418643,0.0203 1.1127673,0.0299 -3.6087497,3.88947 -7.2179225,7.7793 -10.82691509,11.66901 0.0902504,0.35084 0.18046979,0.70171 0.27067327,1.0526 4.03020922,-4.44125 8.06005722,-8.8821 12.09005182,-13.3231 0.18047,0.16036 0.360919,0.34081 0.541347,0.51124 -4.2104303,4.64154 -8.4209113,9.28303 -12.63139882,13.92462 0.0701986,0.36089 0.14036957,0.72181 0.21052295,1.08266 4.52146727,-4.98261 9.06254877,-9.96473 13.59379287,-14.9471 0.330843,-0.03 0.681714,-0.0599 1.022539,-0.0898 -4.982025,5.64365 -9.9647473,11.28804 -14.9471544,16.93204 0.23059506,0.25066 0.46116812,0.52135 0.69171924,0.78202 4.90223376,-5.66418 9.80439316,-11.3282 14.70655616,-16.99227 0.320816,0.0203 0.641618,0.0403 0.962393,0.0598 -4.951981,5.6437 -9.9045988,11.28806 -14.8569305,16.93214 0.4611692,0.0203 0.9223143,0.0401 1.3834395,0.0598 4.9821868,-5.60369 9.984841,-11.20783 14.977228,-16.81178 0.26067,0.0503 0.541369,0.10044 0.812021,0.15038 -4.821668,5.73386 -9.6439518,11.46848 -14.46596,17.20276 0.3508946,0.1905 0.7017651,0.3809 1.052617,0.57143 4.2003722,-5.22286 8.400904,-10.44601 12.601322,-15.66894 0.250646,0.40099 0.50127,0.80194 0.751872,1.20295 -3.689204,4.57147 -7.378321,9.16274 -11.0675127,13.74415 0.2205701,0.16044 0.441118,0.3208 0.661645,0.48119 3.0575687,-3.66901 6.1352717,-7.33822 9.2028767,-11.00735 0.160418,0.42107 0.320818,0.84208 0.481195,1.26321 -2.355899,2.77695 -4.711691,5.55379 -7.067568,8.33065 0.360922,-0.12033 0.721815,-0.24059 1.082691,-0.36085 1.904621,-2.05505 3.829543,-4.11027 5.74428,-6.16532 0.0602,0.40098 0.12032,0.80191 0.180448,1.20292 -1.754418,1.78454 -3.528752,3.56886 -5.293157,5.35336 0.511298,-0.16047 1.022564,-0.32083 1.533813,-0.48119 0.992437,-1.03259 1.984955,-2.06514 2.977401,-3.09773 0.240615,0.11029 0.481217,0.26062 0.721794,0.39096 -0.842047,0.92224 -1.684166,1.84455 -2.526282,2.76687" />
  </g>
</svg>
